<mxfile host="app.diagrams.net" agent="Mozilla/5.0 (Windows NT 10.0; Win64; x64) AppleWebKit/537.36 (KHTML, like Gecko) Chrome/129.0.0.0 Safari/537.36" version="24.8.0">
  <diagram name="Страница — 1" id="7dOZeALXBx4eXPx_rgEK">
    <mxGraphModel dx="2150" dy="928" grid="1" gridSize="10" guides="1" tooltips="1" connect="1" arrows="1" fold="1" page="1" pageScale="1" pageWidth="827" pageHeight="1169" math="0" shadow="0">
      <root>
        <mxCell id="0" />
        <mxCell id="1" parent="0" />
        <mxCell id="Z-cno5B3Iub0lj5Ad9rB-1" value="Зарегистрированный пользователь" style="shape=umlActor;verticalLabelPosition=bottom;verticalAlign=top;html=1;outlineConnect=0;" vertex="1" parent="1">
          <mxGeometry x="750" y="150" width="30" height="60" as="geometry" />
        </mxCell>
        <mxCell id="Z-cno5B3Iub0lj5Ad9rB-16" value="Администратор БД" style="shape=umlActor;verticalLabelPosition=bottom;verticalAlign=top;html=1;outlineConnect=0;" vertex="1" parent="1">
          <mxGeometry x="1270" y="405" width="30" height="60" as="geometry" />
        </mxCell>
        <mxCell id="Z-cno5B3Iub0lj5Ad9rB-26" value="Возможность регистрации пользователей в БД" style="text;html=1;align=center;verticalAlign=middle;whiteSpace=wrap;rounded=0;" vertex="1" parent="1">
          <mxGeometry x="1230" y="700" width="265" height="30" as="geometry" />
        </mxCell>
        <mxCell id="Z-cno5B3Iub0lj5Ad9rB-28" value="Возможность обновления информации о пользователях" style="text;html=1;align=center;verticalAlign=middle;whiteSpace=wrap;rounded=0;" vertex="1" parent="1">
          <mxGeometry x="1225" y="720" width="350" height="30" as="geometry" />
        </mxCell>
        <mxCell id="Z-cno5B3Iub0lj5Ad9rB-31" value="Администратор БД" style="shape=umlActor;verticalLabelPosition=bottom;verticalAlign=top;html=1;outlineConnect=0;" vertex="1" parent="1">
          <mxGeometry x="540" y="500" width="30" height="60" as="geometry" />
        </mxCell>
        <mxCell id="Z-cno5B3Iub0lj5Ad9rB-32" value="" style="endArrow=classic;html=1;rounded=0;exitX=0.75;exitY=0.1;exitDx=0;exitDy=0;exitPerimeter=0;" edge="1" parent="1">
          <mxGeometry width="50" height="50" relative="1" as="geometry">
            <mxPoint x="562.5" y="500" as="sourcePoint" />
            <mxPoint x="700" y="470" as="targetPoint" />
          </mxGeometry>
        </mxCell>
        <mxCell id="Z-cno5B3Iub0lj5Ad9rB-33" value="Просмотр заявок" style="text;html=1;align=center;verticalAlign=middle;whiteSpace=wrap;rounded=0;" vertex="1" parent="1">
          <mxGeometry x="695" y="450" width="110" height="30" as="geometry" />
        </mxCell>
        <mxCell id="Z-cno5B3Iub0lj5Ad9rB-34" value="" style="endArrow=classic;html=1;rounded=0;" edge="1" parent="1">
          <mxGeometry width="50" height="50" relative="1" as="geometry">
            <mxPoint x="570" y="508.8888888888889" as="sourcePoint" />
            <mxPoint x="700" y="490" as="targetPoint" />
          </mxGeometry>
        </mxCell>
        <mxCell id="Z-cno5B3Iub0lj5Ad9rB-35" value="Ответы на заявки" style="text;html=1;align=center;verticalAlign=middle;whiteSpace=wrap;rounded=0;" vertex="1" parent="1">
          <mxGeometry x="700" y="470" width="120" height="30" as="geometry" />
        </mxCell>
        <mxCell id="Z-cno5B3Iub0lj5Ad9rB-36" value="" style="endArrow=classic;html=1;rounded=0;" edge="1" parent="1">
          <mxGeometry width="50" height="50" relative="1" as="geometry">
            <mxPoint x="580" y="521" as="sourcePoint" />
            <mxPoint x="710" y="510" as="targetPoint" />
          </mxGeometry>
        </mxCell>
        <mxCell id="Z-cno5B3Iub0lj5Ad9rB-37" value="Распределение тикетов" style="text;html=1;align=center;verticalAlign=middle;whiteSpace=wrap;rounded=0;" vertex="1" parent="1">
          <mxGeometry x="700" y="490" width="170" height="30" as="geometry" />
        </mxCell>
        <mxCell id="Z-cno5B3Iub0lj5Ad9rB-38" value="" style="endArrow=classic;html=1;rounded=0;entryX=0;entryY=0.5;entryDx=0;entryDy=0;" edge="1" parent="1" target="Z-cno5B3Iub0lj5Ad9rB-39">
          <mxGeometry width="50" height="50" relative="1" as="geometry">
            <mxPoint x="570" y="530" as="sourcePoint" />
            <mxPoint x="700" y="540" as="targetPoint" />
          </mxGeometry>
        </mxCell>
        <mxCell id="Z-cno5B3Iub0lj5Ad9rB-39" value="Присвоение очереди для заявки" style="text;html=1;align=center;verticalAlign=middle;whiteSpace=wrap;rounded=0;" vertex="1" parent="1">
          <mxGeometry x="710" y="515" width="200" height="30" as="geometry" />
        </mxCell>
        <mxCell id="Z-cno5B3Iub0lj5Ad9rB-40" value="" style="endArrow=classic;html=1;rounded=0;entryX=0;entryY=0.5;entryDx=0;entryDy=0;" edge="1" parent="1" target="Z-cno5B3Iub0lj5Ad9rB-41">
          <mxGeometry width="50" height="50" relative="1" as="geometry">
            <mxPoint x="560" y="540.0034482758621" as="sourcePoint" />
            <mxPoint x="700" y="560" as="targetPoint" />
          </mxGeometry>
        </mxCell>
        <mxCell id="Z-cno5B3Iub0lj5Ad9rB-41" value="Добавление комментариев и материалов" style="text;html=1;align=center;verticalAlign=middle;whiteSpace=wrap;rounded=0;" vertex="1" parent="1">
          <mxGeometry x="710" y="540" width="265" height="30" as="geometry" />
        </mxCell>
        <mxCell id="Z-cno5B3Iub0lj5Ad9rB-42" value="" style="endArrow=classic;html=1;rounded=0;exitX=1;exitY=1;exitDx=0;exitDy=0;exitPerimeter=0;" edge="1" parent="1">
          <mxGeometry width="50" height="50" relative="1" as="geometry">
            <mxPoint x="570" y="550" as="sourcePoint" />
            <mxPoint x="720" y="570" as="targetPoint" />
          </mxGeometry>
        </mxCell>
        <mxCell id="Z-cno5B3Iub0lj5Ad9rB-43" value="Сообщение адресованные администратору" style="text;html=1;align=center;verticalAlign=middle;whiteSpace=wrap;rounded=0;" vertex="1" parent="1">
          <mxGeometry x="700" y="560" width="290" height="30" as="geometry" />
        </mxCell>
        <mxCell id="Z-cno5B3Iub0lj5Ad9rB-44" value="" style="endArrow=classic;html=1;rounded=0;exitX=1;exitY=1;exitDx=0;exitDy=0;exitPerimeter=0;" edge="1" parent="1">
          <mxGeometry width="50" height="50" relative="1" as="geometry">
            <mxPoint x="570" y="560" as="sourcePoint" />
            <mxPoint x="720" y="605" as="targetPoint" />
          </mxGeometry>
        </mxCell>
        <mxCell id="Z-cno5B3Iub0lj5Ad9rB-45" value="Получение ответа от администратора" style="text;html=1;align=center;verticalAlign=middle;whiteSpace=wrap;rounded=0;" vertex="1" parent="1">
          <mxGeometry x="680" y="590" width="310" height="30" as="geometry" />
        </mxCell>
        <mxCell id="Z-cno5B3Iub0lj5Ad9rB-46" value="Авторизация" style="ellipse;whiteSpace=wrap;html=1;" vertex="1" parent="1">
          <mxGeometry x="520" y="160" width="120" height="80" as="geometry" />
        </mxCell>
        <mxCell id="Z-cno5B3Iub0lj5Ad9rB-49" value="" style="endArrow=none;html=1;rounded=0;exitX=1;exitY=0.5;exitDx=0;exitDy=0;" edge="1" parent="1" source="Z-cno5B3Iub0lj5Ad9rB-46">
          <mxGeometry width="50" height="50" relative="1" as="geometry">
            <mxPoint x="710" y="260" as="sourcePoint" />
            <mxPoint x="750" y="200" as="targetPoint" />
          </mxGeometry>
        </mxCell>
        <mxCell id="Z-cno5B3Iub0lj5Ad9rB-52" value="Регистрация" style="ellipse;whiteSpace=wrap;html=1;" vertex="1" parent="1">
          <mxGeometry x="105" y="105" width="120" height="80" as="geometry" />
        </mxCell>
        <mxCell id="Z-cno5B3Iub0lj5Ad9rB-53" value="Незарегистрированный пользователь" style="shape=umlActor;verticalLabelPosition=bottom;verticalAlign=top;html=1;outlineConnect=0;" vertex="1" parent="1">
          <mxGeometry x="150" y="250" width="30" height="60" as="geometry" />
        </mxCell>
        <mxCell id="Z-cno5B3Iub0lj5Ad9rB-56" value="" style="endArrow=none;html=1;rounded=0;entryX=0.5;entryY=1;entryDx=0;entryDy=0;exitX=0.5;exitY=0;exitDx=0;exitDy=0;exitPerimeter=0;" edge="1" parent="1" source="Z-cno5B3Iub0lj5Ad9rB-53" target="Z-cno5B3Iub0lj5Ad9rB-52">
          <mxGeometry width="50" height="50" relative="1" as="geometry">
            <mxPoint x="350" y="380" as="sourcePoint" />
            <mxPoint x="400" y="330" as="targetPoint" />
          </mxGeometry>
        </mxCell>
        <mxCell id="Z-cno5B3Iub0lj5Ad9rB-57" value="Написание заявки" style="ellipse;whiteSpace=wrap;html=1;" vertex="1" parent="1">
          <mxGeometry x="905" width="120" height="80" as="geometry" />
        </mxCell>
        <mxCell id="Z-cno5B3Iub0lj5Ad9rB-58" value="" style="endArrow=none;html=1;rounded=0;entryX=0.025;entryY=0.658;entryDx=0;entryDy=0;entryPerimeter=0;" edge="1" parent="1" target="Z-cno5B3Iub0lj5Ad9rB-57">
          <mxGeometry width="50" height="50" relative="1" as="geometry">
            <mxPoint x="785" y="160" as="sourcePoint" />
            <mxPoint x="835" y="110" as="targetPoint" />
          </mxGeometry>
        </mxCell>
        <mxCell id="Z-cno5B3Iub0lj5Ad9rB-59" value="Получение заявки" style="ellipse;whiteSpace=wrap;html=1;" vertex="1" parent="1">
          <mxGeometry x="1080" y="20" width="120" height="80" as="geometry" />
        </mxCell>
        <mxCell id="Z-cno5B3Iub0lj5Ad9rB-60" value="" style="endArrow=none;html=1;rounded=0;entryX=0.011;entryY=0.658;entryDx=0;entryDy=0;entryPerimeter=0;" edge="1" parent="1" target="Z-cno5B3Iub0lj5Ad9rB-59">
          <mxGeometry width="50" height="50" relative="1" as="geometry">
            <mxPoint x="800" y="170" as="sourcePoint" />
            <mxPoint x="1040" y="310" as="targetPoint" />
          </mxGeometry>
        </mxCell>
        <mxCell id="Z-cno5B3Iub0lj5Ad9rB-61" value="Отправление заявки с обратной связью" style="ellipse;whiteSpace=wrap;html=1;" vertex="1" parent="1">
          <mxGeometry x="1090" y="120" width="130" height="80" as="geometry" />
        </mxCell>
        <mxCell id="Z-cno5B3Iub0lj5Ad9rB-63" value="" style="endArrow=none;html=1;rounded=0;entryX=0;entryY=0.5;entryDx=0;entryDy=0;" edge="1" parent="1" target="Z-cno5B3Iub0lj5Ad9rB-61">
          <mxGeometry width="50" height="50" relative="1" as="geometry">
            <mxPoint x="800" y="200" as="sourcePoint" />
            <mxPoint x="1040" y="310" as="targetPoint" />
          </mxGeometry>
        </mxCell>
        <mxCell id="Z-cno5B3Iub0lj5Ad9rB-64" value="Получение ответа от заявки" style="ellipse;whiteSpace=wrap;html=1;" vertex="1" parent="1">
          <mxGeometry x="1095" y="210" width="165" height="80" as="geometry" />
        </mxCell>
        <mxCell id="Z-cno5B3Iub0lj5Ad9rB-65" value="" style="endArrow=none;html=1;rounded=0;" edge="1" parent="1">
          <mxGeometry width="50" height="50" relative="1" as="geometry">
            <mxPoint x="800" y="210" as="sourcePoint" />
            <mxPoint x="1090" y="250" as="targetPoint" />
          </mxGeometry>
        </mxCell>
        <mxCell id="Z-cno5B3Iub0lj5Ad9rB-66" value="Создание бэкапа" style="ellipse;whiteSpace=wrap;html=1;" vertex="1" parent="1">
          <mxGeometry x="1420" y="325" width="120" height="80" as="geometry" />
        </mxCell>
        <mxCell id="Z-cno5B3Iub0lj5Ad9rB-67" value="Получение даты создания заявки" style="ellipse;whiteSpace=wrap;html=1;" vertex="1" parent="1">
          <mxGeometry x="1290" width="120" height="80" as="geometry" />
        </mxCell>
        <mxCell id="Z-cno5B3Iub0lj5Ad9rB-68" value="" style="endArrow=none;dashed=1;html=1;rounded=0;exitX=1;exitY=0.5;exitDx=0;exitDy=0;entryX=0;entryY=0.5;entryDx=0;entryDy=0;" edge="1" parent="1" source="Z-cno5B3Iub0lj5Ad9rB-59" target="Z-cno5B3Iub0lj5Ad9rB-67">
          <mxGeometry width="50" height="50" relative="1" as="geometry">
            <mxPoint x="1300" y="120" as="sourcePoint" />
            <mxPoint x="1350" y="70" as="targetPoint" />
          </mxGeometry>
        </mxCell>
        <mxCell id="Z-cno5B3Iub0lj5Ad9rB-69" value="" style="endArrow=none;html=1;rounded=0;exitX=0.5;exitY=0.5;exitDx=0;exitDy=0;exitPerimeter=0;entryX=0;entryY=0.5;entryDx=0;entryDy=0;" edge="1" parent="1" source="Z-cno5B3Iub0lj5Ad9rB-16" target="Z-cno5B3Iub0lj5Ad9rB-66">
          <mxGeometry width="50" height="50" relative="1" as="geometry">
            <mxPoint x="1430" y="415" as="sourcePoint" />
            <mxPoint x="1480" y="365" as="targetPoint" />
          </mxGeometry>
        </mxCell>
        <mxCell id="Z-cno5B3Iub0lj5Ad9rB-71" value="Архивация данных" style="ellipse;whiteSpace=wrap;html=1;" vertex="1" parent="1">
          <mxGeometry x="1430" y="425" width="120" height="80" as="geometry" />
        </mxCell>
        <mxCell id="Z-cno5B3Iub0lj5Ad9rB-72" value="" style="endArrow=none;html=1;rounded=0;exitX=1;exitY=1;exitDx=0;exitDy=0;exitPerimeter=0;entryX=0.006;entryY=0.358;entryDx=0;entryDy=0;entryPerimeter=0;" edge="1" parent="1" target="Z-cno5B3Iub0lj5Ad9rB-71">
          <mxGeometry width="50" height="50" relative="1" as="geometry">
            <mxPoint x="1290" y="445" as="sourcePoint" />
            <mxPoint x="1390" y="455" as="targetPoint" />
          </mxGeometry>
        </mxCell>
        <mxCell id="Z-cno5B3Iub0lj5Ad9rB-74" value="Вывод информации о пользователях" style="ellipse;whiteSpace=wrap;html=1;" vertex="1" parent="1">
          <mxGeometry x="1450" y="505" width="120" height="80" as="geometry" />
        </mxCell>
        <mxCell id="Z-cno5B3Iub0lj5Ad9rB-75" value="" style="endArrow=none;html=1;rounded=0;entryX=1;entryY=1;entryDx=0;entryDy=0;entryPerimeter=0;" edge="1" parent="1" target="Z-cno5B3Iub0lj5Ad9rB-16">
          <mxGeometry width="50" height="50" relative="1" as="geometry">
            <mxPoint x="1450" y="532" as="sourcePoint" />
            <mxPoint x="1470" y="325" as="targetPoint" />
          </mxGeometry>
        </mxCell>
        <mxCell id="Z-cno5B3Iub0lj5Ad9rB-76" value="Вывод информации о заявках" style="ellipse;whiteSpace=wrap;html=1;" vertex="1" parent="1">
          <mxGeometry x="1340" y="585" width="120" height="80" as="geometry" />
        </mxCell>
      </root>
    </mxGraphModel>
  </diagram>
</mxfile>
